<svg width="148" height="84" viewBox="0 0 148 84" fill="none" xmlns="http://www.w3.org/2000/svg">
<rect width="148" height="84" fill="#FAFAFA"/>
<path d="M91.6475 52.5801C91.512 52.597 91.4274 52.6055 91.3936 52.6055C91.0465 52.6055 90.873 52.4404 90.873 52.1104V46.6006C90.3652 47.0407 89.832 47.375 89.2734 47.6035C88.7064 47.832 88.0378 47.9463 87.2676 47.9463C86.2943 47.9463 85.4479 47.7178 84.7285 47.2607C84.0007 46.8122 83.4421 46.1859 83.0527 45.3818C82.6634 44.5863 82.4688 43.6849 82.4688 42.6777C82.4688 41.6536 82.6592 40.7438 83.04 39.9482C83.4209 39.1527 83.971 38.5306 84.6904 38.082C85.4014 37.6335 86.2435 37.4092 87.2168 37.4092C87.9785 37.4092 88.6768 37.5488 89.3115 37.8281C89.9463 38.1074 90.4837 38.4714 90.9238 38.9199C90.9238 38.5137 90.9535 38.2132 91.0127 38.0186C91.0719 37.8239 91.1481 37.7012 91.2412 37.6504C91.3258 37.5996 91.4359 37.5742 91.5713 37.5742C91.7321 37.5742 91.859 37.6419 91.9521 37.7773C92.0452 37.9128 92.0918 38.1751 92.0918 38.5645L92.0918 51.4756L93.7168 51.374C93.7507 51.3656 93.7887 51.3571 93.8311 51.3486C93.8734 51.3402 93.9199 51.3359 93.9707 51.3359C94.1146 51.3359 94.2331 51.3825 94.3262 51.4756C94.4193 51.5687 94.4658 51.6829 94.4658 51.8184C94.4658 51.9368 94.432 52.0469 94.3643 52.1484C94.2965 52.25 94.1908 52.3135 94.0469 52.3389L91.6475 52.5801ZM89.375 38.9453C88.7656 38.6152 88.0547 38.4502 87.2422 38.4502C86.4805 38.4502 85.833 38.6406 85.2998 39.0215C84.7666 39.4023 84.3646 39.9102 84.0938 40.5449C83.8229 41.1882 83.6875 41.8991 83.6875 42.6777C83.6875 43.4479 83.8271 44.1546 84.1064 44.7979C84.3857 45.4411 84.8005 45.9531 85.3506 46.334C85.9007 46.7148 86.5651 46.9053 87.3438 46.9053C88.8249 46.9053 90.0013 46.3594 90.873 45.2676V40.291C90.4753 39.724 89.9759 39.2754 89.375 38.9453ZM71.9951 50.7012C72.1982 50.9043 72.2998 51.1497 72.2998 51.4375C72.2998 51.7337 72.1982 51.9834 71.9951 52.1865C71.7835 52.3896 71.5339 52.4912 71.2461 52.4912C70.9583 52.4912 70.7129 52.3896 70.5098 52.1865C70.3066 51.9834 70.2051 51.7337 70.2051 51.4375C70.2051 51.1497 70.3066 50.9043 70.5098 50.7012C70.7044 50.498 70.9499 50.3965 71.2461 50.3965C71.5423 50.3965 71.792 50.498 71.9951 50.7012ZM65.7998 37.7773C65.8929 37.6758 66.0199 37.625 66.1807 37.625H76.2861C76.4723 37.625 76.6162 37.68 76.7178 37.79C76.8193 37.9001 76.8701 38.027 76.8701 38.1709C76.8701 38.3063 76.8236 38.4206 76.7305 38.5137C76.6374 38.6152 76.5062 38.666 76.3369 38.666H71.6143V46.7529L75.8418 46.1816L75.9307 46.1689C76.0915 46.1689 76.2184 46.2197 76.3115 46.3213C76.4046 46.4313 76.4512 46.5583 76.4512 46.7021C76.4512 46.8291 76.4173 46.9391 76.3496 47.0322C76.2819 47.1338 76.1803 47.193 76.0449 47.21L70.9922 47.9082C70.9668 47.9167 70.9202 47.9209 70.8525 47.9209C70.7171 47.9209 70.6071 47.8828 70.5225 47.8066C70.4378 47.7389 70.3955 47.6416 70.3955 47.5146V38.666H66.168C66.0072 38.666 65.8844 38.611 65.7998 38.501C65.7067 38.3994 65.6602 38.2809 65.6602 38.1455C65.6602 38.0016 65.7067 37.8789 65.7998 37.7773ZM52.4316 44.8867C52.5501 45.0052 52.6094 45.1702 52.6094 45.3818V46.9053C53.7435 46.9053 54.7464 46.681 55.6182 46.2324C56.4899 45.7923 57.0951 45.1491 57.4336 44.3027V38.666H53.168C53.0072 38.666 52.8844 38.6152 52.7998 38.5137C52.7067 38.4121 52.6602 38.2894 52.6602 38.1455C52.6602 38.0101 52.7067 37.8874 52.7998 37.7773C52.8929 37.6758 53.0199 37.625 53.1807 37.625H60.9248C61.111 37.625 61.2549 37.6758 61.3564 37.7773C61.458 37.8874 61.5088 38.0143 61.5088 38.1582C61.5088 38.2936 61.4622 38.4121 61.3691 38.5137C61.276 38.6152 61.1449 38.666 60.9756 38.666H58.6523V46.626L60.2012 46.3086C60.235 46.3001 60.2858 46.2959 60.3535 46.2959C60.5143 46.2959 60.6413 46.3467 60.7344 46.4482C60.819 46.5498 60.8613 46.6683 60.8613 46.8037C60.8613 46.9222 60.8275 47.0238 60.7598 47.1084C60.6921 47.2015 60.599 47.2607 60.4805 47.2861L58.3096 47.7178C58.1995 47.7432 58.1022 47.7559 58.0176 47.7559C57.8314 47.7559 57.7087 47.6966 57.6494 47.5781C57.5817 47.4596 57.5436 47.2819 57.5352 47.0449L57.4844 45.7246C56.5195 47.2057 54.8607 47.9463 52.5078 47.9463C52.1016 47.9463 51.8138 47.8828 51.6445 47.7559C51.4753 47.6289 51.3906 47.4385 51.3906 47.1846V45.4326C51.3906 45.2041 51.4541 45.0264 51.5811 44.8994C51.6995 44.7809 51.8434 44.7217 52.0127 44.7217C52.1735 44.7217 52.3132 44.7767 52.4316 44.8867ZM45.5127 39.9102C45.9867 40.7227 46.2236 41.6833 46.2236 42.792C46.2236 43.8415 45.9697 44.7555 45.4619 45.5342C44.9456 46.3128 44.2516 46.9095 43.3799 47.3242C42.5081 47.7389 41.5433 47.9463 40.4854 47.9463C39.1481 47.9463 38.0859 47.6924 37.2988 47.1846C36.5117 46.6768 36.1182 45.877 36.1182 44.7852C36.1182 44.4805 36.1859 44.235 36.3213 44.0488C36.4482 43.8626 36.6344 43.7695 36.8799 43.7695C37.1253 43.7695 37.2946 43.9219 37.3877 44.2266C37.4808 44.5397 37.5697 45.0687 37.6543 45.8135L37.7178 46.334C38.141 46.5456 38.5641 46.6937 38.9873 46.7783C39.402 46.863 39.8379 46.9053 40.2949 46.9053C41.2767 46.9053 42.123 46.7402 42.834 46.4102C43.5365 46.0801 44.0739 45.6061 44.4463 44.9883C44.8187 44.3789 45.0049 43.6468 45.0049 42.792C45.0049 41.3617 44.6113 40.2783 43.8242 39.542C43.0286 38.8141 41.9622 38.4502 40.625 38.4502C39.8464 38.4502 39.1947 38.556 38.6699 38.7676C38.1452 38.9792 37.6204 39.3262 37.0957 39.8086C36.9518 39.944 36.7783 40.0117 36.5752 40.0117C36.4482 40.0117 36.3424 39.9694 36.2578 39.8848C36.1732 39.8001 36.1309 39.6689 36.1309 39.4912C36.1309 39.305 36.207 39.1273 36.3594 38.958C36.7995 38.4756 37.4258 38.0947 38.2383 37.8154C39.0423 37.5446 39.804 37.4092 40.5234 37.4092C41.6491 37.4092 42.6436 37.625 43.5068 38.0566C44.3701 38.4883 45.0387 39.1061 45.5127 39.9102ZM21.4297 38.666L21.4297 44.4805C21.4297 45.2507 21.6243 45.8473 22.0137 46.2705C22.3945 46.6937 22.9616 46.9053 23.7148 46.9053C24.485 46.9053 25.1833 46.7529 25.8096 46.4482C26.4274 46.152 26.9098 45.7712 27.2568 45.3057C27.6038 44.8402 27.7773 44.3831 27.7773 43.9346L27.7773 38.666H26.4443C26.2497 38.666 26.1016 38.6152 26 38.5137C25.89 38.4121 25.835 38.2936 25.835 38.1582C25.835 38.0143 25.8942 37.8874 26.0127 37.7773C26.1227 37.6758 26.2751 37.625 26.4697 37.625H30.3164C30.5026 37.625 30.6465 37.68 30.748 37.79C30.8496 37.9001 30.9004 38.027 30.9004 38.1709C30.9004 38.3063 30.8538 38.4206 30.7607 38.5137C30.6676 38.6152 30.5365 38.666 30.3672 38.666H28.9961L28.9961 51.4756L30.875 51.3613C31.0189 51.3529 31.1374 51.391 31.2305 51.4756C31.3236 51.5687 31.3701 51.6829 31.3701 51.8184C31.3701 51.9368 31.3363 52.0511 31.2686 52.1611C31.1924 52.2712 31.0866 52.3304 30.9512 52.3389L28.5518 52.5801C28.4163 52.597 28.3317 52.6055 28.2979 52.6055C27.9508 52.6055 27.7773 52.4404 27.7773 52.1104V45.7373C27.5658 46.152 27.2568 46.5244 26.8506 46.8545C26.4443 47.193 25.9746 47.4596 25.4414 47.6543C24.8997 47.849 24.3454 47.9463 23.7783 47.9463C22.585 47.9463 21.6921 47.6374 21.0996 47.0195C20.5072 46.4017 20.2109 45.5257 20.2109 44.3916L20.2109 38.666H18.8271C18.6663 38.666 18.5436 38.6152 18.459 38.5137C18.3659 38.4121 18.3193 38.2936 18.3193 38.1582C18.3193 38.0143 18.3659 37.8874 18.459 37.7773C18.5521 37.6758 18.6833 37.625 18.8525 37.625H23.2324C23.4186 37.625 23.5625 37.68 23.6641 37.79C23.7656 37.9001 23.8164 38.027 23.8164 38.1709C23.8164 38.3063 23.7699 38.4206 23.6768 38.5137C23.5837 38.6152 23.4525 38.666 23.2832 38.666H21.4297Z" fill="#063318"/>
<path d="M63.2305 21.2148H58.5205V27.4102C58.5205 28.0195 58.7194 28.4681 59.1172 28.7559C59.5234 29.0352 60.0524 29.1748 60.7041 29.1748C61.2965 29.1748 61.9102 29.0732 62.5449 28.8701C63.1882 28.6585 63.7129 28.4004 64.1191 28.0957C64.153 28.0618 64.1995 28.0449 64.2588 28.0449C64.3773 28.0449 64.4958 28.1169 64.6143 28.2607C64.7327 28.4046 64.792 28.5485 64.792 28.6924C64.792 28.7601 64.7708 28.8236 64.7285 28.8828C64.5508 29.0944 64.2419 29.306 63.8018 29.5176C63.3701 29.7207 62.8665 29.8857 62.291 30.0127C61.7155 30.1481 61.1442 30.2158 60.5771 30.2158C60.0016 30.2158 59.46 30.11 58.9521 29.8984C58.4528 29.6784 58.0508 29.3864 57.7461 29.0225C57.4499 28.6585 57.3018 28.2692 57.3018 27.8545V21.2148H55.4863C55.3001 21.2148 55.1562 21.1598 55.0547 21.0498C54.9531 20.9398 54.9023 20.8128 54.9023 20.6689C54.9023 20.5335 54.9489 20.4193 55.042 20.3262C55.1351 20.2246 55.2663 20.1738 55.4355 20.1738H57.3018C57.3018 19.1159 57.3145 18.3584 57.3398 17.9014C57.3652 17.4443 57.4287 17.11 57.5303 16.8984C57.6403 16.6784 57.818 16.5684 58.0635 16.5684C58.2497 16.5684 58.3724 16.6191 58.4316 16.7207C58.4909 16.8138 58.5205 16.9535 58.5205 17.1396V20.1738H63.2432C63.3955 20.1738 63.514 20.2288 63.5986 20.3389C63.6917 20.4404 63.7383 20.5589 63.7383 20.6943C63.7383 20.8382 63.6917 20.9609 63.5986 21.0625C63.514 21.1641 63.3913 21.2148 63.2305 21.2148ZM79.2266 28.959V23.1445C79.2266 22.3743 79.0319 21.7777 78.6426 21.3545C78.2617 20.9313 77.6947 20.7197 76.9414 20.7197C76.1712 20.7197 75.473 20.8721 74.8467 21.1768C74.2288 21.473 73.7464 21.8538 73.3994 22.3193C73.0524 22.7848 72.8789 23.2419 72.8789 23.6904V28.959H74.2119C74.4066 28.959 74.5547 29.0098 74.6562 29.1113C74.7663 29.2129 74.8213 29.3314 74.8213 29.4668C74.8213 29.6107 74.762 29.7376 74.6436 29.8477C74.5335 29.9492 74.3812 30 74.1865 30H70.3398C70.1536 30 70.0098 29.945 69.9082 29.835C69.8066 29.7249 69.7559 29.598 69.7559 29.4541C69.7559 29.3187 69.8024 29.2044 69.8955 29.1113C69.9886 29.0098 70.1198 28.959 70.2891 28.959H71.6602V16.1494L69.7812 16.2637C69.6374 16.2721 69.5189 16.234 69.4258 16.1494C69.3327 16.0563 69.2861 15.9421 69.2861 15.8066C69.2861 15.6882 69.32 15.5739 69.3877 15.4639C69.4639 15.3538 69.5697 15.2946 69.7051 15.2861L72.1045 15.0449C72.2399 15.028 72.3245 15.0195 72.3584 15.0195C72.7054 15.0195 72.8789 15.1846 72.8789 15.5146V21.8877C73.0905 21.473 73.3994 21.1006 73.8057 20.7705C74.2119 20.432 74.6816 20.1654 75.2148 19.9707C75.7565 19.776 76.3109 19.6787 76.8779 19.6787C78.0713 19.6787 78.9642 19.9876 79.5566 20.6055C80.1491 21.2233 80.4453 22.0993 80.4453 23.2334V28.959H81.8291C81.9899 28.959 82.1126 29.0098 82.1973 29.1113C82.2904 29.2129 82.3369 29.3314 82.3369 29.4668C82.3369 29.6107 82.2904 29.7376 82.1973 29.8477C82.1042 29.9492 81.973 30 81.8037 30H77.4238C77.2376 30 77.0938 29.945 76.9922 29.835C76.8906 29.7249 76.8398 29.598 76.8398 29.4541C76.8398 29.3187 76.8864 29.2044 76.9795 29.1113C77.0726 29.0098 77.2038 28.959 77.373 28.959H79.2266ZM87.0088 27.7148C86.5264 26.9023 86.2852 25.9417 86.2852 24.833C86.2852 23.7835 86.5348 22.8695 87.0342 22.0908C87.542 21.3122 88.2191 20.7155 89.0654 20.3008C89.9202 19.8861 90.8639 19.6787 91.8965 19.6787C92.7767 19.6787 93.5596 19.8438 94.2451 20.1738C94.9391 20.4954 95.4808 20.9736 95.8701 21.6084C96.2679 22.2432 96.4668 23.0133 96.4668 23.9189C96.4668 24.2406 96.3779 24.5072 96.2002 24.7188C96.0225 24.9219 95.7855 25.0234 95.4893 25.0234L87.5039 25.0869C87.5462 26.4242 87.9694 27.4398 88.7734 28.1338C89.5775 28.8278 90.6312 29.1748 91.9346 29.1748C92.5693 29.1748 93.1914 29.0605 93.8008 28.832C94.4186 28.5951 94.9688 28.248 95.4512 27.791C95.6289 27.6471 95.8024 27.5752 95.9717 27.5752C96.124 27.5752 96.2467 27.6302 96.3398 27.7402C96.4329 27.8503 96.4795 27.9814 96.4795 28.1338C96.4795 28.32 96.4033 28.4977 96.251 28.667C95.8109 29.141 95.1761 29.5176 94.3467 29.7969C93.5257 30.0762 92.7555 30.2158 92.0361 30.2158C90.902 30.2158 89.8991 30 89.0273 29.5684C88.1641 29.1367 87.4912 28.5189 87.0088 27.7148ZM94.6006 21.7227C94.1351 21.054 93.2422 20.7197 91.9219 20.7197C90.6862 20.7197 89.6833 21.0202 88.9131 21.6211C88.1514 22.222 87.6943 23.0641 87.542 24.1475L95.3877 24.0967C95.3285 23.1826 95.0661 22.3913 94.6006 21.7227Z" fill="#2B523B"/>
<path d="M52.4512 60.1113C51.9857 59.7051 51.7529 59.1465 51.7529 58.4355C51.7529 57.3945 52.1423 56.654 52.9209 56.2139C53.708 55.7738 54.6813 55.5537 55.8408 55.5537C56.5771 55.5537 57.2881 55.668 57.9736 55.8965C58.6592 56.1165 59.1289 56.3916 59.3828 56.7217V56.252C59.3743 56.0573 59.4251 55.9049 59.5352 55.7949C59.6452 55.6764 59.7721 55.6172 59.916 55.6172C60.0599 55.6172 60.1826 55.6722 60.2842 55.7822C60.3857 55.8923 60.4365 56.0446 60.4365 56.2393L60.4111 58.791C60.3942 58.9518 60.3477 59.0703 60.2715 59.1465C60.1953 59.2227 60.0726 59.2607 59.9033 59.2607C59.6917 59.2607 59.5563 59.1803 59.4971 59.0195C59.4378 58.8587 59.404 58.5794 59.3955 58.1816C59.167 57.6484 58.7311 57.2507 58.0879 56.9883C57.4531 56.7259 56.6745 56.5947 55.752 56.5947C53.9577 56.5947 53.0605 57.1449 53.0605 58.2451C53.0605 58.6344 53.179 58.9518 53.416 59.1973C53.653 59.4342 54.0719 59.6204 54.6729 59.7559L57.9609 60.416C58.7819 60.5768 59.4124 60.8688 59.8525 61.292C60.3011 61.7152 60.5254 62.3626 60.5254 63.2344C60.5254 64.1823 60.1488 64.8975 59.3955 65.3799C58.6507 65.8538 57.6478 66.0908 56.3867 66.0908C55.5911 66.0908 54.8506 65.9723 54.165 65.7354C53.488 65.4984 52.9167 65.1133 52.4512 64.5801V65.3418C52.4512 65.5195 52.4046 65.6549 52.3115 65.748C52.2269 65.8327 52.1211 65.875 51.9941 65.875C51.8587 65.875 51.7402 65.8285 51.6387 65.7354C51.5371 65.6423 51.4863 65.5238 51.4863 65.3799L51.5117 62.5107C51.5117 62.2907 51.5583 62.1257 51.6514 62.0156C51.7445 61.9056 51.8503 61.8506 51.9688 61.8506C52.1126 61.8506 52.2227 61.8929 52.2988 61.9775C52.3835 62.0622 52.4258 62.2399 52.4258 62.5107C52.4258 62.9847 52.5951 63.4163 52.9336 63.8057C53.2806 64.195 53.7503 64.4997 54.3428 64.7197C54.9352 64.9398 55.5911 65.0498 56.3105 65.0498C57.2754 65.0498 58.0117 64.9017 58.5195 64.6055C59.0358 64.3008 59.2939 63.8395 59.2939 63.2217C59.2939 62.79 59.1797 62.443 58.9512 62.1807C58.7227 61.9098 58.3376 61.7236 57.7959 61.6221L54.4189 60.9619C53.5726 60.8011 52.9167 60.5176 52.4512 60.1113ZM74.1855 59.9082V59.6543C74.1855 58.6641 73.9909 57.9066 73.6016 57.3818C73.2207 56.8571 72.5563 56.5947 71.6084 56.5947C71.0752 56.5947 70.5843 56.6413 70.1357 56.7344C69.6956 56.819 69.2513 56.9629 68.8027 57.166C68.7689 57.8177 68.6927 58.3086 68.5742 58.6387C68.4557 58.9688 68.2526 59.1338 67.9648 59.1338C67.7194 59.1338 67.529 59.0492 67.3936 58.8799C67.2666 58.7106 67.2031 58.4906 67.2031 58.2197C67.2031 57.7119 67.3893 57.2549 67.7617 56.8486C68.1341 56.4424 68.6546 56.125 69.3232 55.8965C69.9919 55.668 70.7578 55.5537 71.6211 55.5537C72.5944 55.5537 73.3561 55.7357 73.9062 56.0996C74.4648 56.4635 74.8542 56.9883 75.0742 57.6738C75.2943 58.3509 75.4043 59.2057 75.4043 60.2383V64.1992C75.4043 64.4954 75.4635 64.6986 75.582 64.8086C75.7005 64.9102 75.8613 64.9609 76.0645 64.9609C76.2845 64.9609 76.5173 64.8975 76.7627 64.7705C77.0081 64.6351 77.2028 64.4912 77.3467 64.3389C77.4398 64.2373 77.5413 64.1865 77.6514 64.1865C77.7783 64.1865 77.8883 64.2415 77.9814 64.3516C78.0745 64.4616 78.1211 64.5843 78.1211 64.7197C78.1211 64.8467 78.0788 64.9525 77.9941 65.0371C77.7233 65.3249 77.4102 65.5534 77.0547 65.7227C76.7077 65.8835 76.3438 65.9639 75.9629 65.9639C75.5312 65.9639 75.1673 65.8623 74.8711 65.6592C74.5749 65.4476 74.376 65.0413 74.2744 64.4404C73.8597 64.9059 73.2757 65.2952 72.5225 65.6084C71.7777 65.9215 70.9652 66.0781 70.085 66.0781C69.137 66.0781 68.3965 65.82 67.8633 65.3037C67.3301 64.779 67.0635 64.0807 67.0635 63.209C67.0635 62.3288 67.3428 61.6644 67.9014 61.2158C68.46 60.7673 69.1455 60.471 69.958 60.3271C70.779 60.1833 71.8792 60.0648 73.2588 59.9717L74.1855 59.9082ZM72.4209 64.6309C73.1403 64.3431 73.7285 63.958 74.1855 63.4756V60.7842L73.665 60.835C72.277 60.9704 71.236 61.1016 70.542 61.2285C69.8564 61.347 69.3105 61.5586 68.9043 61.8633C68.498 62.168 68.2949 62.6165 68.2949 63.209C68.2949 63.8522 68.4684 64.3219 68.8154 64.6182C69.1709 64.9059 69.6406 65.0498 70.2246 65.0498C70.9779 65.0498 71.71 64.9102 72.4209 64.6309ZM84.2402 56.125V62.5869C84.2402 63.3232 84.4476 63.9199 84.8623 64.377C85.2855 64.8255 85.9076 65.0498 86.7285 65.0498C87.2279 65.0498 87.7399 64.9567 88.2646 64.7705C88.7894 64.5843 89.2591 64.3304 89.6738 64.0088C90.097 63.6872 90.4017 63.3317 90.5879 62.9424V56.9121L89.3564 57.166C89.2803 57.1914 89.2041 57.2041 89.1279 57.2041C88.9502 57.2041 88.8063 57.1491 88.6963 57.0391C88.5863 56.929 88.5312 56.8021 88.5312 56.6582C88.5312 56.5397 88.5693 56.4382 88.6455 56.3535C88.7301 56.2604 88.8529 56.1969 89.0137 56.1631L91.2227 55.7188C91.2904 55.7018 91.3411 55.6934 91.375 55.6934C91.502 55.6934 91.6035 55.7357 91.6797 55.8203C91.7643 55.9049 91.8066 56.0065 91.8066 56.125V64.7959L93.6855 64.6562H93.7617C93.931 64.6562 94.0579 64.6986 94.1426 64.7832C94.2272 64.8678 94.2695 64.9736 94.2695 65.1006C94.2695 65.2275 94.2272 65.346 94.1426 65.4561C94.0579 65.5576 93.9395 65.6253 93.7871 65.6592L91.4258 65.9131H91.3369C91.1676 65.9131 91.028 65.8623 90.918 65.7607C90.8079 65.6507 90.7487 65.4899 90.7402 65.2783L90.6768 64.1738C90.3044 64.724 89.75 65.181 89.0137 65.5449C88.2773 65.9089 87.5114 66.0908 86.7158 66.0908C85.9541 66.0908 85.2939 65.9427 84.7354 65.6465C84.1768 65.3503 83.7493 64.9355 83.4531 64.4023C83.1654 63.8691 83.0215 63.2513 83.0215 62.5488V56.9121L81.7773 57.166C81.7266 57.1829 81.6546 57.1914 81.5615 57.1914C81.3923 57.1914 81.2526 57.1364 81.1426 57.0264C81.0326 56.9163 80.9775 56.7894 80.9775 56.6455C80.9775 56.527 81.0156 56.4255 81.0918 56.3408C81.168 56.2562 81.2822 56.1969 81.4346 56.1631L83.6562 55.7188C83.724 55.7018 83.7747 55.6934 83.8086 55.6934C83.9355 55.6934 84.0371 55.7357 84.1133 55.8203C84.1979 55.9049 84.2402 56.0065 84.2402 56.125ZM106.686 64.834V59.0195C106.686 58.2493 106.491 57.6527 106.102 57.2295C105.721 56.8063 105.154 56.5947 104.4 56.5947C103.63 56.5947 102.932 56.7428 102.306 57.0391C101.688 57.3353 101.205 57.7077 100.858 58.1562C100.511 58.6048 100.338 59.0492 100.338 59.4893V64.834H101.671C101.866 64.834 102.014 64.8848 102.115 64.9863C102.225 65.0879 102.28 65.2064 102.28 65.3418C102.28 65.4857 102.221 65.6126 102.103 65.7227C101.993 65.8242 101.84 65.875 101.646 65.875H97.7988C97.6126 65.875 97.4688 65.82 97.3672 65.71C97.2656 65.5999 97.2148 65.473 97.2148 65.3291C97.2148 65.1937 97.2614 65.0794 97.3545 64.9863C97.4476 64.8848 97.5788 64.834 97.748 64.834H99.1191V56.874L97.748 57.1533C97.6634 57.1787 97.5788 57.1914 97.4941 57.1914C97.3503 57.1914 97.2318 57.1449 97.1387 57.0518C97.0456 56.9587 96.999 56.8444 96.999 56.709C96.999 56.5905 97.0329 56.4847 97.1006 56.3916C97.1683 56.29 97.2741 56.2223 97.418 56.1885L99.5 55.7695C99.6185 55.7526 99.6947 55.7441 99.7285 55.7441C100.042 55.7441 100.207 55.9092 100.224 56.2393L100.287 57.7627C100.499 57.348 100.812 56.9756 101.227 56.6455C101.641 56.307 102.119 56.0404 102.661 55.8457C103.203 55.651 103.761 55.5537 104.337 55.5537C105.53 55.5537 106.423 55.8626 107.016 56.4805C107.608 57.0983 107.904 57.9743 107.904 59.1084V64.834H109.288C109.449 64.834 109.572 64.8848 109.656 64.9863C109.749 65.0879 109.796 65.2064 109.796 65.3418C109.796 65.4857 109.749 65.6126 109.656 65.7227C109.563 65.8242 109.432 65.875 109.263 65.875H104.883C104.697 65.875 104.553 65.82 104.451 65.71C104.35 65.5999 104.299 65.473 104.299 65.3291C104.299 65.1937 104.345 65.0794 104.438 64.9863C104.532 64.8848 104.663 64.834 104.832 64.834H106.686ZM121.412 59.9082V59.6543C121.412 58.6641 121.217 57.9066 120.828 57.3818C120.447 56.8571 119.783 56.5947 118.835 56.5947C118.302 56.5947 117.811 56.6413 117.362 56.7344C116.922 56.819 116.478 56.9629 116.029 57.166C115.995 57.8177 115.919 58.3086 115.801 58.6387C115.682 58.9688 115.479 59.1338 115.191 59.1338C114.946 59.1338 114.756 59.0492 114.62 58.8799C114.493 58.7106 114.43 58.4906 114.43 58.2197C114.43 57.7119 114.616 57.2549 114.988 56.8486C115.361 56.4424 115.881 56.125 116.55 55.8965C117.218 55.668 117.984 55.5537 118.848 55.5537C119.821 55.5537 120.583 55.7357 121.133 56.0996C121.691 56.4635 122.081 56.9883 122.301 57.6738C122.521 58.3509 122.631 59.2057 122.631 60.2383V64.1992C122.631 64.4954 122.69 64.6986 122.809 64.8086C122.927 64.9102 123.088 64.9609 123.291 64.9609C123.511 64.9609 123.744 64.8975 123.989 64.7705C124.235 64.6351 124.429 64.4912 124.573 64.3389C124.666 64.2373 124.768 64.1865 124.878 64.1865C125.005 64.1865 125.115 64.2415 125.208 64.3516C125.301 64.4616 125.348 64.5843 125.348 64.7197C125.348 64.8467 125.305 64.9525 125.221 65.0371C124.95 65.3249 124.637 65.5534 124.281 65.7227C123.934 65.8835 123.57 65.9639 123.189 65.9639C122.758 65.9639 122.394 65.8623 122.098 65.6592C121.801 65.4476 121.603 65.0413 121.501 64.4404C121.086 64.9059 120.502 65.2952 119.749 65.6084C119.004 65.9215 118.192 66.0781 117.312 66.0781C116.364 66.0781 115.623 65.82 115.09 65.3037C114.557 64.779 114.29 64.0807 114.29 63.209C114.29 62.3288 114.569 61.6644 115.128 61.2158C115.687 60.7673 116.372 60.471 117.185 60.3271C118.006 60.1833 119.106 60.0648 120.485 59.9717L121.412 59.9082ZM119.647 64.6309C120.367 64.3431 120.955 63.958 121.412 63.4756V60.7842L120.892 60.835C119.504 60.9704 118.463 61.1016 117.769 61.2285C117.083 61.347 116.537 61.5586 116.131 61.8633C115.725 62.168 115.521 62.6165 115.521 63.209C115.521 63.8522 115.695 64.3219 116.042 64.6182C116.397 64.9059 116.867 65.0498 117.451 65.0498C118.204 65.0498 118.937 64.9102 119.647 64.6309Z" fill="#607769"/>
</svg>
