<svg width="98" height="56" viewBox="0 0 98 56" fill="none" xmlns="http://www.w3.org/2000/svg">
<rect width="98" height="56" fill="#FAFAFA"/>
<path d="M65.8262 35.5039C65.722 35.5169 65.6569 35.5234 65.6309 35.5234C65.3639 35.5234 65.2305 35.3965 65.2305 35.1426V30.9043C64.8398 31.2428 64.4297 31.5 64 31.6758C63.5638 31.8516 63.0495 31.9395 62.457 31.9395C61.7083 31.9395 61.0573 31.7637 60.5039 31.4121C59.944 31.0671 59.5143 30.5853 59.2148 29.9668C58.9154 29.3548 58.7656 28.6615 58.7656 27.8867C58.7656 27.099 58.9121 26.3991 59.2051 25.7871C59.498 25.1751 59.9212 24.6966 60.4746 24.3516C61.0215 24.0065 61.6693 23.834 62.418 23.834C63.0039 23.834 63.541 23.9414 64.0293 24.1562C64.5176 24.3711 64.931 24.651 65.2695 24.9961C65.2695 24.6836 65.2923 24.4525 65.3379 24.3027C65.3835 24.153 65.4421 24.0586 65.5137 24.0195C65.5788 23.9805 65.6634 23.9609 65.7676 23.9609C65.8913 23.9609 65.9889 24.013 66.0605 24.1172C66.1322 24.2214 66.168 24.4232 66.168 24.7227V34.6543L67.418 34.5762C67.444 34.5697 67.4733 34.5632 67.5059 34.5566C67.5384 34.5501 67.5742 34.5469 67.6133 34.5469C67.724 34.5469 67.8151 34.5827 67.8867 34.6543C67.9583 34.7259 67.9941 34.8138 67.9941 34.918C67.9941 35.0091 67.9681 35.0938 67.916 35.1719C67.8639 35.25 67.7826 35.2988 67.6719 35.3184L65.8262 35.5039ZM64.0781 25.0156C63.6094 24.7617 63.0625 24.6348 62.4375 24.6348C61.8516 24.6348 61.3535 24.7812 60.9434 25.0742C60.5332 25.3672 60.224 25.7578 60.0156 26.2461C59.8073 26.7409 59.7031 27.2878 59.7031 27.8867C59.7031 28.4792 59.8105 29.0228 60.0254 29.5176C60.2402 30.0124 60.5592 30.4062 60.9824 30.6992C61.4056 30.9922 61.9167 31.1387 62.5156 31.1387C63.6549 31.1387 64.5599 30.7188 65.2305 29.8789V26.0508C64.9245 25.6146 64.5404 25.2695 64.0781 25.0156ZM50.709 34.0586C50.8652 34.2148 50.9434 34.4036 50.9434 34.625C50.9434 34.8529 50.8652 35.0449 50.709 35.2012C50.5462 35.3574 50.3542 35.4355 50.1328 35.4355C49.9115 35.4355 49.7227 35.3574 49.5664 35.2012C49.4102 35.0449 49.332 34.8529 49.332 34.625C49.332 34.4036 49.4102 34.2148 49.5664 34.0586C49.7161 33.9023 49.9049 33.8242 50.1328 33.8242C50.3607 33.8242 50.5527 33.9023 50.709 34.0586ZM45.9434 24.1172C46.015 24.0391 46.1126 24 46.2363 24H54.0098C54.153 24 54.2637 24.0423 54.3418 24.127C54.4199 24.2116 54.459 24.3092 54.459 24.4199C54.459 24.5241 54.4232 24.612 54.3516 24.6836C54.2799 24.7617 54.179 24.8008 54.0488 24.8008H50.416V31.0215L53.668 30.582L53.7363 30.5723C53.86 30.5723 53.9577 30.6113 54.0293 30.6895C54.1009 30.7741 54.1367 30.8717 54.1367 30.9824C54.1367 31.0801 54.1107 31.1647 54.0586 31.2363C54.0065 31.3145 53.9284 31.36 53.8242 31.373L49.9375 31.9102C49.918 31.9167 49.8822 31.9199 49.8301 31.9199C49.7259 31.9199 49.6413 31.8906 49.5762 31.832C49.5111 31.7799 49.4785 31.7051 49.4785 31.6074V24.8008H46.2266C46.1029 24.8008 46.0085 24.7585 45.9434 24.6738C45.8717 24.5957 45.8359 24.5046 45.8359 24.4004C45.8359 24.2897 45.8717 24.1953 45.9434 24.1172ZM35.6602 29.5859C35.7513 29.6771 35.7969 29.804 35.7969 29.9668V31.1387C36.6693 31.1387 37.4408 30.9661 38.1113 30.6211C38.7819 30.2826 39.2474 29.7878 39.5078 29.1367V24.8008H36.2266C36.1029 24.8008 36.0085 24.7617 35.9434 24.6836C35.8717 24.6055 35.8359 24.5111 35.8359 24.4004C35.8359 24.2962 35.8717 24.2018 35.9434 24.1172C36.015 24.0391 36.1126 24 36.2363 24H42.1934C42.3366 24 42.4473 24.0391 42.5254 24.1172C42.6035 24.2018 42.6426 24.2995 42.6426 24.4102C42.6426 24.5143 42.6068 24.6055 42.5352 24.6836C42.4635 24.7617 42.3626 24.8008 42.2324 24.8008H40.4453V30.9238L41.6367 30.6797C41.6628 30.6732 41.7018 30.6699 41.7539 30.6699C41.8776 30.6699 41.9753 30.709 42.0469 30.7871C42.112 30.8652 42.1445 30.9564 42.1445 31.0605C42.1445 31.1517 42.1185 31.2298 42.0664 31.2949C42.0143 31.3665 41.9427 31.4121 41.8516 31.4316L40.1816 31.7637C40.097 31.7832 40.0221 31.793 39.957 31.793C39.8138 31.793 39.7194 31.7474 39.6738 31.6562C39.6217 31.5651 39.5924 31.4284 39.5859 31.2461L39.5469 30.2305C38.8047 31.3698 37.5286 31.9395 35.7188 31.9395C35.4062 31.9395 35.1849 31.8906 35.0547 31.793C34.9245 31.6953 34.8594 31.5488 34.8594 31.3535V30.0059C34.8594 29.8301 34.9082 29.6934 35.0059 29.5957C35.097 29.5046 35.2077 29.459 35.3379 29.459C35.4616 29.459 35.569 29.5013 35.6602 29.5859ZM30.3379 25.7578C30.7025 26.3828 30.8848 27.1217 30.8848 27.9746C30.8848 28.7819 30.6895 29.485 30.2988 30.084C29.9017 30.6829 29.3678 31.1419 28.6973 31.4609C28.0267 31.7799 27.2845 31.9395 26.4707 31.9395C25.4421 31.9395 24.625 31.7441 24.0195 31.3535C23.4141 30.9629 23.1113 30.3477 23.1113 29.5078C23.1113 29.2734 23.1634 29.0846 23.2676 28.9414C23.3652 28.7982 23.5085 28.7266 23.6973 28.7266C23.8861 28.7266 24.0163 28.8437 24.0879 29.0781C24.1595 29.319 24.2279 29.7259 24.293 30.2988L24.3418 30.6992C24.6673 30.862 24.9928 30.9759 25.3184 31.041C25.6374 31.1061 25.9727 31.1387 26.3242 31.1387C27.0794 31.1387 27.7305 31.0117 28.2773 30.7578C28.8177 30.5039 29.2311 30.1393 29.5176 29.6641C29.804 29.1953 29.9473 28.6322 29.9473 27.9746C29.9473 26.8743 29.6445 26.041 29.0391 25.4746C28.4271 24.9147 27.6068 24.6348 26.5781 24.6348C25.9792 24.6348 25.4779 24.7161 25.0742 24.8789C24.6706 25.0417 24.2669 25.3086 23.8633 25.6797C23.7526 25.7839 23.6191 25.8359 23.4629 25.8359C23.3652 25.8359 23.2839 25.8034 23.2188 25.7383C23.1536 25.6732 23.1211 25.5723 23.1211 25.4355C23.1211 25.2923 23.1797 25.1556 23.2969 25.0254C23.6354 24.6543 24.1172 24.3613 24.7422 24.1465C25.3607 23.9382 25.9466 23.834 26.5 23.834C27.3659 23.834 28.1309 24 28.7949 24.332C29.459 24.6641 29.9733 25.1393 30.3379 25.7578ZM11.8125 24.8008L11.8125 29.2734C11.8125 29.8659 11.9622 30.3249 12.2617 30.6504C12.5547 30.9759 12.9909 31.1387 13.5703 31.1387C14.1628 31.1387 14.6999 31.0215 15.1816 30.7871C15.6569 30.5592 16.028 30.2663 16.2949 29.9082C16.5618 29.5501 16.6953 29.1986 16.6953 28.8535V24.8008H15.6699C15.5202 24.8008 15.4063 24.7617 15.3281 24.6836C15.2435 24.6055 15.2012 24.5143 15.2012 24.4102C15.2012 24.2995 15.2467 24.2018 15.3379 24.1172C15.4225 24.0391 15.5397 24 15.6895 24H18.6484C18.7917 24 18.9023 24.0423 18.9805 24.127C19.0586 24.2116 19.0977 24.3092 19.0977 24.4199C19.0977 24.5241 19.0618 24.612 18.9902 24.6836C18.9186 24.7617 18.8177 24.8008 18.6875 24.8008H17.6328L17.6328 34.6543L19.0781 34.5664C19.1888 34.5599 19.2799 34.5892 19.3516 34.6543C19.4232 34.7259 19.459 34.8138 19.459 34.918C19.459 35.0091 19.4329 35.097 19.3809 35.1816C19.3223 35.2663 19.2409 35.3118 19.1367 35.3184L17.291 35.5039C17.1868 35.5169 17.1217 35.5234 17.0957 35.5234C16.8288 35.5234 16.6953 35.3965 16.6953 35.1426V30.2402C16.5326 30.5592 16.2949 30.8457 15.9824 31.0996C15.6699 31.36 15.3086 31.5651 14.8984 31.7148C14.4818 31.8646 14.0553 31.9395 13.6191 31.9395C12.7012 31.9395 12.0143 31.7018 11.5586 31.2266C11.1029 30.7513 10.875 30.0775 10.875 29.2051L10.875 24.8008L9.81055 24.8008C9.68685 24.8008 9.59245 24.7617 9.52734 24.6836C9.45573 24.6055 9.41992 24.5143 9.41992 24.4102C9.41992 24.2995 9.45573 24.2018 9.52734 24.1172C9.59896 24.0391 9.69987 24 9.83008 24L13.1992 24C13.3424 24 13.4531 24.0423 13.5313 24.127C13.6094 24.2116 13.6484 24.3092 13.6484 24.4199C13.6484 24.5241 13.6126 24.612 13.541 24.6836C13.4694 24.7617 13.3685 24.8008 13.2383 24.8008H11.8125Z" fill="#063318"/>
<path d="M44.5547 14.2422H40.9316V19.0078C40.9316 19.4766 41.0846 19.8216 41.3906 20.043C41.7031 20.2578 42.11 20.3652 42.6113 20.3652C43.0671 20.3652 43.5391 20.2871 44.0273 20.1309C44.5221 19.9681 44.9258 19.7695 45.2383 19.5352C45.2643 19.5091 45.3001 19.4961 45.3457 19.4961C45.4368 19.4961 45.528 19.5514 45.6191 19.6621C45.7103 19.7728 45.7559 19.8835 45.7559 19.9941C45.7559 20.0462 45.7396 20.0951 45.707 20.1406C45.5703 20.3034 45.3327 20.4661 44.9941 20.6289C44.6621 20.7852 44.2747 20.9121 43.832 21.0098C43.3893 21.1139 42.9499 21.166 42.5137 21.166C42.071 21.166 41.6543 21.0846 41.2637 20.9219C40.8796 20.7526 40.5703 20.528 40.3359 20.248C40.1081 19.9681 39.9941 19.6686 39.9941 19.3496V14.2422H38.5977C38.4544 14.2422 38.3438 14.1999 38.2656 14.1152C38.1875 14.0306 38.1484 13.9329 38.1484 13.8223C38.1484 13.7181 38.1842 13.6302 38.2559 13.5586C38.3275 13.4805 38.4284 13.4414 38.5586 13.4414H39.9941C39.9941 12.6276 40.0039 12.0449 40.0234 11.6934C40.043 11.3418 40.0918 11.0846 40.1699 10.9219C40.2546 10.7526 40.3913 10.668 40.5801 10.668C40.7233 10.668 40.8177 10.707 40.8633 10.7852C40.9089 10.8568 40.9316 10.9642 40.9316 11.1074V13.4414H44.5645C44.6816 13.4414 44.7728 13.4837 44.8379 13.5684C44.9095 13.6465 44.9453 13.7376 44.9453 13.8418C44.9453 13.9525 44.9095 14.0469 44.8379 14.125C44.7728 14.2031 44.6784 14.2422 44.5547 14.2422ZM56.8594 20.1992V15.7266C56.8594 15.1341 56.7096 14.6751 56.4102 14.3496C56.1172 14.0241 55.681 13.8613 55.1016 13.8613C54.5091 13.8613 53.972 13.9785 53.4902 14.2129C53.015 14.4408 52.6439 14.7337 52.377 15.0918C52.11 15.4499 51.9766 15.8014 51.9766 16.1465V20.1992H53.002C53.1517 20.1992 53.2656 20.2383 53.3438 20.3164C53.4284 20.3945 53.4707 20.4857 53.4707 20.5898C53.4707 20.7005 53.4251 20.7982 53.334 20.8828C53.2493 20.9609 53.1322 21 52.9824 21H50.0234C49.8802 21 49.7695 20.9577 49.6914 20.873C49.6133 20.7884 49.5742 20.6908 49.5742 20.5801C49.5742 20.4759 49.61 20.388 49.6816 20.3164C49.7533 20.2383 49.8542 20.1992 49.9844 20.1992H51.0391V10.3457L49.5938 10.4336C49.4831 10.4401 49.3919 10.4108 49.3203 10.3457C49.2487 10.2741 49.2129 10.1862 49.2129 10.082C49.2129 9.99089 49.2389 9.90299 49.291 9.81836C49.3496 9.73372 49.431 9.68815 49.5352 9.68164L51.3809 9.49609C51.485 9.48307 51.5501 9.47656 51.5762 9.47656C51.8431 9.47656 51.9766 9.60352 51.9766 9.85742V14.7598C52.1393 14.4408 52.377 14.1543 52.6895 13.9004C53.002 13.64 53.3633 13.4349 53.7734 13.2852C54.1901 13.1354 54.6165 13.0605 55.0527 13.0605C55.9707 13.0605 56.6576 13.2982 57.1133 13.7734C57.569 14.2487 57.7969 14.9225 57.7969 15.7949V20.1992H58.8613C58.985 20.1992 59.0794 20.2383 59.1445 20.3164C59.2161 20.3945 59.252 20.4857 59.252 20.5898C59.252 20.7005 59.2161 20.7982 59.1445 20.8828C59.0729 20.9609 58.972 21 58.8418 21H55.4727C55.3294 21 55.2188 20.9577 55.1406 20.873C55.0625 20.7884 55.0234 20.6908 55.0234 20.5801C55.0234 20.4759 55.0592 20.388 55.1309 20.3164C55.2025 20.2383 55.3034 20.1992 55.4336 20.1992H56.8594ZM62.8457 19.2422C62.4746 18.6172 62.2891 17.8783 62.2891 17.0254C62.2891 16.2181 62.4811 15.515 62.8652 14.916C63.2559 14.3171 63.7767 13.8581 64.4277 13.5391C65.0853 13.2201 65.8112 13.0605 66.6055 13.0605C67.2826 13.0605 67.8848 13.1875 68.4121 13.4414C68.946 13.6888 69.3626 14.0566 69.6621 14.5449C69.9681 15.0332 70.1211 15.6257 70.1211 16.3223C70.1211 16.5697 70.0527 16.7747 69.916 16.9375C69.7793 17.0938 69.597 17.1719 69.3691 17.1719L63.2266 17.2207C63.2591 18.2493 63.5846 19.0306 64.2031 19.5645C64.8216 20.0983 65.6322 20.3652 66.6348 20.3652C67.123 20.3652 67.6016 20.2773 68.0703 20.1016C68.5456 19.9193 68.9688 19.6523 69.3398 19.3008C69.4766 19.1901 69.61 19.1348 69.7402 19.1348C69.8574 19.1348 69.9518 19.1771 70.0234 19.2617C70.0951 19.3464 70.1309 19.4473 70.1309 19.5645C70.1309 19.7077 70.0723 19.8444 69.9551 19.9746C69.6165 20.3392 69.1283 20.6289 68.4902 20.8438C67.8587 21.0586 67.2663 21.166 66.7129 21.166C65.8405 21.166 65.069 21 64.3984 20.668C63.7344 20.3359 63.2168 19.8607 62.8457 19.2422ZM68.6855 14.6328C68.3275 14.1185 67.6406 13.8613 66.625 13.8613C65.6745 13.8613 64.903 14.0924 64.3105 14.5547C63.7246 15.0169 63.373 15.6647 63.2559 16.498L69.291 16.459C69.2454 15.7559 69.0436 15.1471 68.6855 14.6328Z" fill="#2B523B"/>
<path d="M31.3398 41.5664C30.9818 41.2539 30.8027 40.8242 30.8027 40.2773C30.8027 39.4766 31.1022 38.9069 31.7012 38.5684C32.3066 38.2298 33.0553 38.0605 33.9473 38.0605C34.5137 38.0605 35.0605 38.1484 35.5879 38.3242C36.1152 38.4935 36.4766 38.7051 36.6719 38.959V38.5977C36.6654 38.4479 36.7044 38.3307 36.7891 38.2461C36.8737 38.1549 36.9714 38.1094 37.082 38.1094C37.1927 38.1094 37.2871 38.1517 37.3652 38.2363C37.4434 38.321 37.4824 38.4382 37.4824 38.5879L37.4629 40.5508C37.4499 40.6745 37.4141 40.7656 37.3555 40.8242C37.2969 40.8828 37.2025 40.9121 37.0723 40.9121C36.9095 40.9121 36.8053 40.8503 36.7598 40.7266C36.7142 40.6029 36.6882 40.388 36.6816 40.082C36.5059 39.6719 36.1706 39.3659 35.6758 39.1641C35.1875 38.9622 34.5885 38.8613 33.8789 38.8613C32.4987 38.8613 31.8086 39.2845 31.8086 40.1309C31.8086 40.4303 31.8997 40.6745 32.082 40.8633C32.2643 41.0456 32.5866 41.1888 33.0488 41.293L35.5781 41.8008C36.2096 41.9245 36.6947 42.1491 37.0332 42.4746C37.3783 42.8001 37.5508 43.2982 37.5508 43.9688C37.5508 44.6979 37.2611 45.248 36.6816 45.6191C36.1087 45.9837 35.3372 46.166 34.3672 46.166C33.7552 46.166 33.1855 46.0749 32.6582 45.8926C32.1374 45.7103 31.6979 45.4141 31.3398 45.0039V45.5898C31.3398 45.7266 31.304 45.8307 31.2324 45.9023C31.1673 45.9674 31.0859 46 30.9883 46C30.8841 46 30.793 45.9642 30.7148 45.8926C30.6367 45.821 30.5977 45.7298 30.5977 45.6191L30.6172 43.4121C30.6172 43.2428 30.653 43.1159 30.7246 43.0312C30.7962 42.9466 30.8776 42.9043 30.9688 42.9043C31.0794 42.9043 31.1641 42.9368 31.2227 43.002C31.2878 43.0671 31.3203 43.2038 31.3203 43.4121C31.3203 43.7767 31.4505 44.1087 31.7109 44.4082C31.9779 44.7077 32.3392 44.9421 32.7949 45.1113C33.2507 45.2806 33.7552 45.3652 34.3086 45.3652C35.0508 45.3652 35.6172 45.2513 36.0078 45.0234C36.4049 44.7891 36.6035 44.4342 36.6035 43.959C36.6035 43.627 36.5156 43.36 36.3398 43.1582C36.1641 42.9499 35.8678 42.8066 35.4512 42.7285L32.8535 42.2207C32.2025 42.097 31.6979 41.8789 31.3398 41.5664ZM48.0586 41.4102V41.2148C48.0586 40.4531 47.9089 39.8704 47.6094 39.4668C47.3164 39.0632 46.8053 38.8613 46.0762 38.8613C45.666 38.8613 45.2884 38.8971 44.9434 38.9688C44.6048 39.0339 44.263 39.1445 43.918 39.3008C43.8919 39.8021 43.8333 40.1797 43.7422 40.4336C43.651 40.6875 43.4948 40.8145 43.2734 40.8145C43.0846 40.8145 42.9382 40.7493 42.834 40.6191C42.7363 40.4889 42.6875 40.3197 42.6875 40.1113C42.6875 39.7207 42.8307 39.3691 43.1172 39.0566C43.4036 38.7441 43.804 38.5 44.3184 38.3242C44.8327 38.1484 45.4219 38.0605 46.0859 38.0605C46.8346 38.0605 47.4206 38.2005 47.8438 38.4805C48.2734 38.7604 48.5729 39.1641 48.7422 39.6914C48.9115 40.2122 48.9961 40.8698 48.9961 41.6641V44.7109C48.9961 44.9388 49.0417 45.0951 49.1328 45.1797C49.224 45.2578 49.3477 45.2969 49.5039 45.2969C49.6732 45.2969 49.8522 45.248 50.041 45.1504C50.2298 45.0462 50.3796 44.9355 50.4902 44.8184C50.5618 44.7402 50.64 44.7012 50.7246 44.7012C50.8223 44.7012 50.9069 44.7435 50.9785 44.8281C51.0501 44.9128 51.0859 45.0072 51.0859 45.1113C51.0859 45.209 51.0534 45.2904 50.9883 45.3555C50.7799 45.5768 50.5391 45.7526 50.2656 45.8828C49.9987 46.0065 49.7188 46.0684 49.4258 46.0684C49.0938 46.0684 48.8138 45.9902 48.5859 45.834C48.3581 45.6712 48.2051 45.3587 48.127 44.8965C47.8079 45.2546 47.3587 45.554 46.7793 45.7949C46.2064 46.0358 45.5814 46.1562 44.9043 46.1562C44.1751 46.1562 43.6055 45.9577 43.1953 45.5605C42.7852 45.1569 42.5801 44.6198 42.5801 43.9492C42.5801 43.2721 42.7949 42.7611 43.2246 42.416C43.6543 42.071 44.1816 41.8431 44.8066 41.7324C45.4382 41.6217 46.2845 41.5306 47.3457 41.459L48.0586 41.4102ZM46.7012 45.043C47.2546 44.8216 47.707 44.5254 48.0586 44.1543V42.084L47.6582 42.123C46.5905 42.2272 45.7897 42.3281 45.2559 42.4258C44.7285 42.5169 44.3086 42.6797 43.9961 42.9141C43.6836 43.1484 43.5273 43.4935 43.5273 43.9492C43.5273 44.444 43.6608 44.8053 43.9277 45.0332C44.2012 45.2546 44.5625 45.3652 45.0117 45.3652C45.5911 45.3652 46.1543 45.2578 46.7012 45.043ZM55.793 38.5V43.4707C55.793 44.0371 55.9525 44.4961 56.2715 44.8477C56.597 45.1927 57.0755 45.3652 57.707 45.3652C58.0911 45.3652 58.485 45.2936 58.8887 45.1504C59.2923 45.0072 59.6536 44.8118 59.9727 44.5645C60.2982 44.3171 60.5326 44.0436 60.6758 43.7441V39.1055L59.7285 39.3008C59.6699 39.3203 59.6113 39.3301 59.5527 39.3301C59.416 39.3301 59.3053 39.2878 59.2207 39.2031C59.1361 39.1185 59.0938 39.0208 59.0938 38.9102C59.0938 38.819 59.123 38.7409 59.1816 38.6758C59.2467 38.6042 59.3411 38.5553 59.4648 38.5293L61.1641 38.1875C61.2161 38.1745 61.2552 38.168 61.2812 38.168C61.3789 38.168 61.457 38.2005 61.5156 38.2656C61.5807 38.3307 61.6133 38.4089 61.6133 38.5V45.1699L63.0586 45.0625H63.1172C63.2474 45.0625 63.3451 45.0951 63.4102 45.1602C63.4753 45.2253 63.5078 45.3066 63.5078 45.4043C63.5078 45.502 63.4753 45.5931 63.4102 45.6777C63.3451 45.7559 63.2539 45.8079 63.1367 45.834L61.3203 46.0293H61.252C61.1217 46.0293 61.0143 45.9902 60.9297 45.9121C60.8451 45.8275 60.7995 45.7038 60.793 45.541L60.7441 44.6914C60.4577 45.1146 60.0312 45.4661 59.4648 45.7461C58.8984 46.026 58.3092 46.166 57.6973 46.166C57.1113 46.166 56.6035 46.0521 56.1738 45.8242C55.7441 45.5964 55.4154 45.2773 55.1875 44.8672C54.9661 44.457 54.8555 43.9818 54.8555 43.4414V39.1055L53.8984 39.3008C53.8594 39.3138 53.804 39.3203 53.7324 39.3203C53.6022 39.3203 53.4948 39.278 53.4102 39.1934C53.3255 39.1087 53.2832 39.0111 53.2832 38.9004C53.2832 38.8092 53.3125 38.7311 53.3711 38.666C53.4297 38.6009 53.5176 38.5553 53.6348 38.5293L55.3438 38.1875C55.3958 38.1745 55.4349 38.168 55.4609 38.168C55.5586 38.168 55.6367 38.2005 55.6953 38.2656C55.7604 38.3307 55.793 38.4089 55.793 38.5ZM73.0586 45.1992V40.7266C73.0586 40.1341 72.9089 39.6751 72.6094 39.3496C72.3164 39.0241 71.8802 38.8613 71.3008 38.8613C70.7083 38.8613 70.1712 38.9753 69.6895 39.2031C69.2142 39.431 68.8431 39.7174 68.5762 40.0625C68.3092 40.4076 68.1758 40.7493 68.1758 41.0879V45.1992H69.2012C69.3509 45.1992 69.4648 45.2383 69.543 45.3164C69.6276 45.3945 69.6699 45.4857 69.6699 45.5898C69.6699 45.7005 69.6243 45.7982 69.5332 45.8828C69.4486 45.9609 69.3314 46 69.1816 46H66.2227C66.0794 46 65.9688 45.9577 65.8906 45.873C65.8125 45.7884 65.7734 45.6908 65.7734 45.5801C65.7734 45.4759 65.8092 45.388 65.8809 45.3164C65.9525 45.2383 66.0534 45.1992 66.1836 45.1992H67.2383V39.0762L66.1836 39.291C66.1185 39.3105 66.0534 39.3203 65.9883 39.3203C65.8776 39.3203 65.7865 39.2845 65.7148 39.2129C65.6432 39.1413 65.6074 39.0534 65.6074 38.9492C65.6074 38.8581 65.6335 38.7767 65.6855 38.7051C65.7376 38.627 65.819 38.5749 65.9297 38.5488L67.5312 38.2266C67.6224 38.2135 67.681 38.207 67.707 38.207C67.9479 38.207 68.0749 38.334 68.0879 38.5879L68.1367 39.7598C68.2995 39.4408 68.5404 39.1543 68.8594 38.9004C69.1784 38.64 69.5462 38.4349 69.9629 38.2852C70.3796 38.1354 70.8092 38.0605 71.252 38.0605C72.1699 38.0605 72.8568 38.2982 73.3125 38.7734C73.7682 39.2487 73.9961 39.9225 73.9961 40.7949V45.1992H75.0605C75.1842 45.1992 75.2786 45.2383 75.3438 45.3164C75.4154 45.3945 75.4512 45.4857 75.4512 45.5898C75.4512 45.7005 75.4154 45.7982 75.3438 45.8828C75.2721 45.9609 75.1712 46 75.041 46H71.6719C71.5286 46 71.418 45.9577 71.3398 45.873C71.2617 45.7884 71.2227 45.6908 71.2227 45.5801C71.2227 45.4759 71.2585 45.388 71.3301 45.3164C71.4017 45.2383 71.5026 45.1992 71.6328 45.1992H73.0586ZM84.3867 41.4102V41.2148C84.3867 40.4531 84.237 39.8704 83.9375 39.4668C83.6445 39.0632 83.1335 38.8613 82.4043 38.8613C81.9941 38.8613 81.6165 38.8971 81.2715 38.9688C80.9329 39.0339 80.5911 39.1445 80.2461 39.3008C80.2201 39.8021 80.1615 40.1797 80.0703 40.4336C79.9792 40.6875 79.8229 40.8145 79.6016 40.8145C79.4128 40.8145 79.2663 40.7493 79.1621 40.6191C79.0645 40.4889 79.0156 40.3197 79.0156 40.1113C79.0156 39.7207 79.1589 39.3691 79.4453 39.0566C79.7318 38.7441 80.1322 38.5 80.6465 38.3242C81.1608 38.1484 81.75 38.0605 82.4141 38.0605C83.1628 38.0605 83.7487 38.2005 84.1719 38.4805C84.6016 38.7604 84.901 39.1641 85.0703 39.6914C85.2396 40.2122 85.3242 40.8698 85.3242 41.6641V44.7109C85.3242 44.9388 85.3698 45.0951 85.4609 45.1797C85.5521 45.2578 85.6758 45.2969 85.832 45.2969C86.0013 45.2969 86.1803 45.248 86.3691 45.1504C86.5579 45.0462 86.7077 44.9355 86.8184 44.8184C86.89 44.7402 86.9681 44.7012 87.0527 44.7012C87.1504 44.7012 87.235 44.7435 87.3066 44.8281C87.3783 44.9128 87.4141 45.0072 87.4141 45.1113C87.4141 45.209 87.3815 45.2904 87.3164 45.3555C87.1081 45.5768 86.8672 45.7526 86.5938 45.8828C86.3268 46.0065 86.0469 46.0684 85.7539 46.0684C85.4219 46.0684 85.1419 45.9902 84.9141 45.834C84.6862 45.6712 84.5332 45.3587 84.4551 44.8965C84.1361 45.2546 83.6868 45.554 83.1074 45.7949C82.5345 46.0358 81.9095 46.1562 81.2324 46.1562C80.5033 46.1562 79.9336 45.9577 79.5234 45.5605C79.1133 45.1569 78.9082 44.6198 78.9082 43.9492C78.9082 43.2721 79.123 42.7611 79.5527 42.416C79.9824 42.071 80.5098 41.8431 81.1348 41.7324C81.7663 41.6217 82.6126 41.5306 83.6738 41.459L84.3867 41.4102ZM83.0293 45.043C83.5827 44.8216 84.0352 44.5254 84.3867 44.1543V42.084L83.9863 42.123C82.9186 42.2272 82.1178 42.3281 81.584 42.4258C81.0566 42.5169 80.6367 42.6797 80.3242 42.9141C80.0117 43.1484 79.8555 43.4935 79.8555 43.9492C79.8555 44.444 79.9889 44.8053 80.2559 45.0332C80.5293 45.2546 80.8906 45.3652 81.3398 45.3652C81.9193 45.3652 82.4824 45.2578 83.0293 45.043Z" fill="#607769"/>
</svg>
